#!OML:ASF X:\für Bonn\!DataBase\2005_08_12_Daniel\c3d\Daniel.ASF
:FULLY-SPECIFIED
:DEGREES
63
root 3.85947 16.997 1.08552 -580.365 -91.9447 580.688
lowerback 25.3256 -2.08548 2.85364
upperback 6.89343 -2.74677 -2.63931
thorax -6.66725 -1.57186 -3.67577
lowerneck -8.46205 1.54967 0.491827
upperneck -13.2736 1.11382 -4.59781
head -2.77805 0.409558 -1.55798
rclavicle 3.1408e-014 1.11319e-014
rhumerus -48.3191 3.82314 -97.0958
rradius 70.1715
rwrist 18.3502
rhand -20.128 366.658
rfingers 7.12502
rthumb 6.21624 -23.2311
lclavicle 3.1408e-014 1.11319e-014
lhumerus -214.543 194.672 -81.4731
lradius 65.6216
lwrist 26.9007
lhand -23.2007 8.60623
lfingers 7.12502
lthumb 3.24927 38.5612
rfemur -11.7676 9.63316 15.4745
rtibia 34.907
rfoot -32.0786 -14.7789
rtoes -10.2609
lfemur -208.656 192.955 -196.418
ltibia 43.1396
lfoot 341.252 4.91037
ltoes 2.07536
64
root 3.84404 16.9933 1.11969 -584.644 -92.1276 585.073
lowerback 25.5609 -1.9796 2.67914
upperback 6.89794 -2.66321 -2.73504
thorax -6.7707 -1.53353 -3.70222
lowerneck -8.55794 1.40258 0.378748
upperneck -13.3862 0.919769 -4.47965
head -2.80633 0.311742 -1.50082
rclavicle -1.76918e-014 -2.5842e-014
rhumerus -48.313 3.68804 -97.2263
rradius 69.8993
rwrist 18.4266
rhand -20.4074 366.112
rfingers 7.12502
rthumb 5.94651 -23.7842
lclavicle -1.76918e-014 -2.5842e-014
lhumerus -214.131 195.363 -81.4135
lradius 65.3873
lwrist 27.5508
lhand -23.2608 9.07715
lfingers 7.12502
lthumb 3.19126 39.033
rfemur -12.0747 8.589 14.9222
rtibia 35.1964
rfoot -31.4729 -14.0863
rtoes -10.3488
lfemur -208.745 193.057 -196.807
ltibia 43.1926
lfoot 341.169 4.98928
ltoes 2.01959
65
root 3.82784 16.9854 1.15573 -587.948 -92.3065 588.436
lowerback 25.8341 -1.88012 2.52877
upperback 6.89195 -2.58107 -2.81661
thorax -6.90492 -1.49645 -3.72645
lowerneck -8.59251 1.25534 0.254064
upperneck -13.5012 0.725587 -4.38209
head -2.84573 0.216351 -1.44898
rclavicle 1.88845e-014 1.90833e-014
rhumerus -48.3344 3.57353 -97.3439
rradius 69.6649
rwrist 18.5701
rhand -20.6488 365.523
rfingers 7.12502
rthumb 5.71342 -24.3799
lclavicle 1.88845e-014 1.90833e-014
lhumerus -213.694 195.986 -81.3453
lradius 65.1839
lwrist 28.1408
lhand -23.2095 9.59201
lfingers 7.12502
lthumb 3.24079 39.5471
rfemur -12.3608 7.49942 14.3879
rtibia 35.5406
rfoot -30.8444 -13.3096
rtoes -10.2459
lfemur -208.803 193.211 -197.185
ltibia 43.2944
lfoot 341.048 5.08411
ltoes 2.08273
66
root 3.81137 16.9773 1.19293 -589.465 -92.4361 589.969
lowerback 26.1492 -1.7946 2.48457
upperback 6.89162 -2.4902 -2.88862
thorax -7.05572 -1.45662 -3.80456
lowerneck -8.6757 1.09499 0.097292
upperneck -13.5849 0.522431 -4.23419
head -2.86575 0.11614 -1.37422
rclavicle 6.75868e-015 1.19271e-015
rhumerus -48.3024 3.47523 -97.4902
rradius 69.4469
rwrist 18.6965
rhand -20.8021 364.92
rfingers 7.12502
rthumb 5.56543 -24.9865
lclavicle 6.75868e-015 1.19271e-015
lhumerus -213.179 196.694 -81.2905
lradius 64.9733
lwrist 28.6392
lhand -23.2322 10.0143
lfingers 7.12502
lthumb 3.21881 39.9698
rfemur -12.6315 6.3892 13.9452
rtibia 35.9513
rfoot -30.2467 -12.536
rtoes -10.3326
lfemur -208.846 193.379 -197.486
ltibia 43.4448
lfoot 340.905 5.17565
ltoes 2.13268
67
root 3.79417 16.9676 1.23118 -589.9 -92.5208 590.409
lowerback 26.4752 -1.72428 2.51536
upperback 6.86272 -2.39532 -2.93739
thorax -7.24437 -1.41561 -3.90244
lowerneck -8.70617 0.932948 -0.1049
upperneck -13.6482 0.324766 -4.06876
head -2.88712 0.0220712 -1.28606
rclavicle 1.43125e-014 4.37326e-015
rhumerus -48.2602 3.37078 -97.6191
rradius 69.2502
rwrist 18.92
rhand -20.8291 364.34
rfingers 7.12502
rthumb 5.53934 -25.5677
lclavicle 1.43125e-014 4.37326e-015
lhumerus -212.658 197.365 -81.207
lradius 64.784
lwrist 28.9856
lhand -23.2185 10.3285
lfingers 7.12502
lthumb 3.2321 40.2838
rfemur -12.9403 5.31373 13.5729
rtibia 36.4543
rfoot -29.6619 -11.7759
rtoes -10.3921
lfemur -208.905 193.522 -197.732
ltibia 43.6493
lfoot 340.732 5.24513
ltoes 2.11534
68
root 3.77576 16.9578 1.26926 -590.754 -92.5864 591.229
lowerback 26.8144 -1.63711 2.53132
upperback 6.8393 -2.28195 -2.97069
thorax -7.43009 -1.36602 -3.98166
lowerneck -8.73363 0.775359 -0.296257
upperneck -13.7097 0.128596 -3.94567
head -2.90787 -0.0708011 -1.21369
rclavicle 2.18663e-015 2.54444e-014
rhumerus -48.169 3.33773 -97.7322
rradius 69.0754
rwrist 19.1616
rhand -20.8899 363.975
rfingers 7.12502
rthumb 5.48062 -25.9345
lclavicle 2.18663e-015 2.54444e-014
lhumerus -212.086 198.07 -81.0998
lradius 64.5964
lwrist 29.1951
lhand -23.2971 10.4936
lfingers 7.12502
lthumb 3.15617 40.45
rfemur -13.2453 4.28958 13.2099
rtibia 37.0463
rfoot -29.101 -11.0481
rtoes -10.5282
lfemur -208.931 193.666 -197.985
ltibia 43.9069
lfoot 340.542 5.33233
ltoes 2.12152
69
root 3.75705 16.944 1.3076 -591.17 -92.6472 591.6
lowerback 27.1489 -1.55377 2.55013
upperback 6.8113 -2.17107 -2.99103
thorax -7.61793 -1.3177 -4.04861
lowerneck -8.77927 0.622875 -0.406863
upperneck -13.7509 -0.069115 -3.87538
head -2.91828 -0.167416 -1.17221
rclavicle 1.55052e-014 1.55052e-014
rhumerus -48.0096 3.34745 -97.8347
rradius 68.9512
rwrist 19.2611
rhand -20.8454 363.792
rfingers 7.12502
rthumb 5.52361 -26.1158
lclavicle 1.55052e-014 1.55052e-014
lhumerus -211.47 198.818 -80.9834
lradius 64.4456
lwrist 29.2391
lhand -23.478 10.5174
lfingers 7.12502
lthumb 2.98153 40.4763
rfemur -13.5972 3.30311 12.8603
rtibia 37.7486
rfoot -28.6001 -10.2656
rtoes -10.5127
lfemur -208.976 193.811 -198.218
ltibia 44.2124
lfoot 340.297 5.37224
ltoes 2.15528
70
root 3.7381 16.9264 1.34606 -591.116 -92.7039 591.46
lowerback 27.5077 -1.4698 2.53631
upperback 6.76883 -2.06361 -2.97675
thorax -7.83188 -1.2708 -4.05761
lowerneck -8.77566 0.507509 -0.419516
upperneck -13.8017 -0.231028 -3.8943
head -2.94013 -0.24769 -1.17697
rclavicle 3.57812e-015 -7.95139e-016
rhumerus -47.7734 3.48607 -97.913
rradius 68.8092
rwrist 19.2521
rhand -20.8281 363.853
rfingers 7.12502
rthumb 5.54035 -26.0547
lclavicle 3.57812e-015 -7.95139e-016
lhumerus -210.819 199.489 -80.846
lradius 64.2814
lwrist 29.1847
lhand -23.6567 10.3918
lfingers 7.12502
lthumb 2.80887 40.3531
rfemur -13.9399 2.31813 12.5363
rtibia 38.5319
rfoot -28.1023 -9.52906
rtoes -10.5637
lfemur -209.017 193.92 -198.451
ltibia 44.5753
lfoot 340.093 5.39301
ltoes 2.17533
71
root 3.71765 16.9068 1.38369 -591.787 -92.7509 592.042
lowerback 27.814 -1.37284 2.46594
upperback 6.73224 -1.95593 -2.96121
thorax -8.0118 -1.22253 -4.03379
lowerneck -8.7804 0.423141 -0.307428
upperneck -13.8261 -0.364875 -4.00062
head -2.95179 -0.31796 -1.23152
rclavicle -6.16232e-015 -6.75868e-015
rhumerus -47.2868 3.78658 -97.9847
rradius 68.575
rwrist 19.0399
rhand -20.7957 364.129
rfingers 7.12502
rthumb 5.5716 -25.7782
lclavicle -6.16232e-015 -6.75868e-015
lhumerus -210.093 200.142 -80.7502
lradius 64.1233
lwrist 28.9858
lhand -23.858 10.2206
lfingers 7.12502
lthumb 2.61453 40.1843
rfemur -14.3172 1.4489 12.2033
rtibia 39.3974
rfoot -27.6117 -8.82136
rtoes -10.6187
lfemur -209.056 194.014 -198.7
ltibia 44.9755
lfoot 339.829 5.43168
ltoes 2.18964
72
root 3.69678 16.886 1.41991 -591.784 -92.7837 591.924
lowerback 28.1132 -1.2784 2.38364
upperback 6.6893 -1.85163 -2.91749
thorax -8.19471 -1.17524 -3.97103
lowerneck -8.78833 0.365584 -0.13606
upperneck -13.8476 -0.469506 -4.14575
head -2.96206 -0.375636 -1.3091
rclavicle -2.18663e-015 -1.43125e-014
rhumerus -46.5382 4.235 -98.0502
rradius 68.1968
rwrist 18.6825
rhand -20.7981 364.474
rfingers 7.12502
rthumb 5.56927 -25.4332
lclavicle -2.18663e-015 -1.43125e-014
lhumerus -209.344 200.786 -80.6937
lradius 64.0399
lwrist 28.8254
lhand -24.1137 10.0597
lfingers 7.12502
lthumb 2.36758 40.0264
rfemur -14.6841 0.597729 11.9113
rtibia 40.3088
rfoot -27.0341 -8.12393
rtoes -10.6495
lfemur -209.086 194.063 -198.914
ltibia 45.4075
lfoot 339.566 5.36973
ltoes 2.20977
73
root 3.67537 16.864 1.4557 -591.934 -92.8294 591.943
lowerback 28.3587 -1.17889 2.31117
upperback 6.67202 -1.74222 -2.89163
thorax -8.32272 -1.12521 -3.93679
lowerneck -8.81442 0.293315 0.0404676
upperneck -13.8375 -0.590401 -4.27717
head -2.95908 -0.4421 -1.38299
rclavicle 2.38542e-015 3.18055e-015
rhumerus -45.5436 4.7144 -98.1136
rradius 67.7172
rwrist 18.3494
rhand -20.8074 364.932
rfingers 7.12502
rthumb 5.56034 -24.9752
lclavicle 2.38542e-015 3.18055e-015
lhumerus -208.497 201.508 -80.7093
lradius 63.984
lwrist 28.6754
lhand -24.3495 9.96946
lfingers 7.12502
lthumb 2.1398 39.9385
rfemur -15.0455 -0.187278 11.6013
rtibia 41.2634
rfoot -26.4561 -7.44826
rtoes -10.6106
lfemur -209.096 194.141 -199.15
ltibia 45.8356
lfoot 339.323 5.3597
ltoes 2.2115
74
root 3.65187 16.8438 1.48928 -592.126 -92.8325 591.982
lowerback 28.5799 -1.08357 2.23983
upperback 6.64089 -1.63598 -2.85416
thorax -8.45468 -1.07633 -3.88971
lowerneck -8.7211 0.228802 0.17396
upperneck -13.8769 -0.699034 -4.39438
head -2.99368 -0.498124 -1.44565
rclavicle -1.15295e-014 -2.94201e-014
rhumerus -44.4021 5.25818 -98.1946
rradius 67.1233
rwrist 18.1029
rhand -20.9127 365.442
rfingers 7.12502
rthumb 5.45864 -24.4675
lclavicle -1.15295e-014 -2.94201e-014
lhumerus -207.629 202.154 -80.7954
lradius 64.027
lwrist 28.5821
lhand -24.5565 9.97541
lfingers 7.12502
lthumb 1.93995 39.9463
rfemur -15.4073 -0.879049 11.3453
rtibia 42.2394
rfoot -25.8539 -6.8665
rtoes -10.6582
lfemur -209.06 194.149 -199.352
ltibia 46.2387
lfoot 339.072 5.30519
ltoes 2.25183
75
root 3.62794 16.8267 1.51882 -592.216 -92.8592 591.911
lowerback 28.7512 -0.993057 2.15997
upperback 6.62386 -1.54158 -2.83653
thorax -8.54784 -1.03247 -3.85641
lowerneck -8.57337 0.165844 0.258619
upperneck -13.9511 -0.796506 -4.43645
head -3.0488 -0.546542 -1.47544
rclavicle -2.78299e-015 -1.03368e-014
rhumerus -43.1157 5.77823 -98.2877
rradius 66.5077
rwrist 18.044
rhand -20.9813 365.979
rfingers 7.12502
rthumb 5.3924 -23.9325
lclavicle -2.78299e-015 -1.03368e-014
lhumerus -206.632 202.857 -80.9643
lradius 64.0771
lwrist 28.5845
lhand -24.7611 10.1272
lfingers 7.12502
lthumb 1.74232 40.0998
rfemur -15.8014 -1.50301 11.0897
rtibia 43.2442
rfoot -25.2518 -6.42914
rtoes -10.9431
lfemur -208.985 194.131 -199.56
ltibia 46.5948
lfoot 338.865 5.22666
ltoes 2.2701
76
root 3.6029 16.8124 1.53642 -592.259 -92.8666 591.773
lowerback 28.9135 -0.871663 1.98277
upperback 6.59104 -1.43194 -2.78882
thorax -8.65129 -0.97916 -3.73824
lowerneck -8.30796 0.0875193 0.289409
upperneck -14.0669 -0.910704 -4.45396
head -3.13923 -0.598673 -1.4882
rclavicle -1.39149e-015 1.19271e-014
rhumerus -41.7252 6.41434 -98.3715
rradius 65.9286
rwrist 18.0894
rhand -21.0422 366.328
rfingers 7.12502
rthumb 5.33365 -23.5845
lclavicle -1.39149e-015 1.19271e-014
lhumerus -205.5 203.582 -81.2047
lradius 64.0806
lwrist 28.722
lhand -24.9098 10.298
lfingers 7.12502
lthumb 1.59866 40.2718
rfemur -16.2256 -1.97315 10.9249
rtibia 44.2832
rfoot -24.6095 -6.19858
rtoes -11.2844
lfemur -208.847 193.991 -199.711
ltibia 46.8909
lfoot 338.692 5.02943
ltoes 2.23316
77
root 3.57708 16.8003 1.55323 -592.351 -92.8516 591.664
lowerback 29.0281 -0.759172 1.8868
upperback 6.57636 -1.31409 -2.76455
thorax -8.71244 -0.923166 -3.69709
lowerneck -7.95833 -0.0121628 0.202426
upperneck -14.233 -1.03876 -4.36013
head -3.26084 -0.652756 -1.44364
rclavicle 1.63003e-014 1.03368e-014
rhumerus -40.1452 7.08963 -98.4134
rradius 65.3742
rwrist 18.2805
rhand -21.0803 366.528
rfingers 7.12502
rthumb 5.29681 -23.3855
lclavicle 1.63003e-014 1.03368e-014
lhumerus -204.239 204.387 -81.5299
lradius 64.0894
lwrist 28.915
lhand -25.0817 10.5179
lfingers 7.12502
lthumb 1.43262 40.4928
rfemur -16.6682 -2.40915 10.7742
rtibia 45.3699
rfoot -23.906 -6.0049
rtoes -11.5673
lfemur -208.657 193.843 -199.85
ltibia 47.1347
lfoot 338.552 4.87358
ltoes 2.21198
